<svg xmlns="http://www.w3.org/2000/svg" viewBox="0 0 275 275">
  <defs>
    <style>
      .a, .d {
        fill: #00507f;
      }

      .b, .e {
        fill: #f25f46;
      }

      .b {
        stroke: #f25f46;
      }

      .b, .c, .d {
        stroke-miterlimit: 10;
      }

      .c, .f {
        fill: #32bdbc;
      }

      .c {
        stroke: #32bdbc;
      }

      .d {
        stroke: #00507f;
      }
    </style>
  </defs>
  <title>MarchForScience</title>
  <g>
    <path class="a" d="M148.53,123.69a5.64,5.64,0,0,1-.7.1,1.07,1.07,0,0,1-.8,0,0.81,0.81,0,0,0-.8-0.1c-0.1.1-.2,0.1-0.1,0.4a0.1,0.1,0,0,0,.1.1,0.43,0.43,0,0,0,.3.3,1.7,1.7,0,0,1,.7.1,0.25,0.25,0,0,0,.3.2h0.2a2.39,2.39,0,0,0,.7-0.3,1.49,1.49,0,0,1,.6-0.1l0.2-.2c0.1-.1.2-0.2,0.1-0.3A2.35,2.35,0,0,1,148.53,123.69Z"/>
    <path class="a" d="M149.53,117.59a1.48,1.48,0,0,0-1.3,0,1.27,1.27,0,0,1-1.1.5c-0.5-.1-0.4,0-0.4-0.5s-0.5-1.5-.9-1.4l-0.4.1s-7.1,0-7.3.2-0.4.8-.7,0.7-0.2-.5-0.5-0.4,0,0.5-.3.8a1.1,1.1,0,0,1-1.1.1,1.75,1.75,0,0,0-1.2-.1c-0.8,0-1.6.3-1.4,0.5s-0.3.4-.5,0.2a0.62,0.62,0,0,0-.7.4c0,0.2-.1.5-0.4,0.4a0.44,0.44,0,0,0-.6.3,1.14,1.14,0,0,1-.8.3c-0.1,0-1,0-.7.2a0.82,0.82,0,0,0,.7.1c0.3,0.1.5,0.5,0.7,0.5a0.44,0.44,0,0,0,.5-0.1,1.69,1.69,0,0,0,.2-0.5,0.65,0.65,0,0,0,.2.5c0.2,0.1.8-.1,1,0a5.85,5.85,0,0,1,1.3.2,4.18,4.18,0,0,1,1,.4h0a7,7,0,0,1,.3,1.2,0.89,0.89,0,0,0,.5-0.4,0.66,0.66,0,0,1,.6.1,2.09,2.09,0,0,1,.4.6,0.34,0.34,0,0,1-.2.3c-0.1-.1-0.3-0.1-0.2-0.2s0.1-.5,0-0.5h-0.3a0.44,0.44,0,0,0-.5.2,0.4,0.4,0,0,0,.1.6,0.48,0.48,0,0,1,.4.1c0,0.1-.3.3-0.3,0.4s0.3,0.6.3,0.7a1.42,1.42,0,0,0,.6.2c0.1,0-.3,0-0.2.2a0.82,0.82,0,0,0,.5.5,2.84,2.84,0,0,1,.9.6c0.1,0.2.5-.1,0.6-0.1a1,1,0,0,0,.3.4,0.64,0.64,0,0,0,.6-0.2,0.73,0.73,0,0,0,.2-0.6c0-.2,0-0.3.2-0.2a0.25,0.25,0,0,0,.4-0.2c0-.2-0.2-0.4.2-0.5a4.71,4.71,0,0,1,.9-0.3,3.33,3.33,0,0,0,1,0,3.39,3.39,0,0,1,.6-0.6c0.2,0,.8-0.1,1.3-0.1a4.05,4.05,0,0,1,1.2-.3c0.2,0,.6,0,0.5-0.1a0.92,0.92,0,0,0-.6-0.4c-0.3,0,0-.4.1-0.4s0.5,0.1.4,0.2a0.4,0.4,0,0,0,.5.4c0.4-.1.3-0.4,0.2-0.4s-0.1-.3-0.2-0.4-0.1-.3.3-0.3,1,0.2.9-.2v-0.1a1.48,1.48,0,0,1,.1-0.7c0.1-.2.4-0.3,0.2-0.3s-0.3.1-.4-0.2a0.49,0.49,0,0,1,.3-0.6,8.47,8.47,0,0,1,1.4-1C149.53,118.09,149.83,117.69,149.53,117.59Z"/>
    <path class="a" d="M127.93,139a0.37,0.37,0,0,1-.3-0.1l-0.6-.3a1.34,1.34,0,0,0-.8-0.2,6.37,6.37,0,0,0-.9.2c0,0.3.3,0.2,0.6,0.2a2,2,0,0,1,1.1.1l0.1,0.1a4.35,4.35,0,0,1,.7.4,0.63,0.63,0,0,0,.6,0A0.7,0.7,0,0,0,127.93,139Z"/>
    <path class="a" d="M127.63,138.09a0.35,0.35,0,0,0,.2-0.1c0-.1-0.1-0.2-0.3-0.1a0.35,0.35,0,0,0-.2.1A0.44,0.44,0,0,0,127.63,138.09Z"/>
    <path class="a" d="M127.63,140.19a0.22,0.22,0,0,0-.2.2,0.21,0.21,0,0,0,.3.2,0.22,0.22,0,0,0,.2-0.2C127.93,140.29,127.73,140.09,127.63,140.19Z"/>
    <path class="a" d="M131.43,139.79a0.22,0.22,0,0,0-.2.2,0.21,0.21,0,0,0,.3.2,0.22,0.22,0,0,0,.2-0.2A0.34,0.34,0,0,0,131.43,139.79Z"/>
    <path class="a" d="M130.13,139.49a1.65,1.65,0,0,0-.7,0,1.33,1.33,0,0,0-.5.3l-0.1.1a2,2,0,0,0,.5.1,1.06,1.06,0,0,1,.5.2,1.08,1.08,0,0,0,.6-0.1c0.1,0,.3.3,0.3,0v-0.2A0.72,0.72,0,0,0,130.13,139.49Z"/>
    <path class="a" d="M156.93,132.29a0.32,0.32,0,0,0-.3.3c0,0.1,0,.2.1,0.2a0.35,0.35,0,0,0,.5-0.1v-0.2A0.34,0.34,0,0,0,156.93,132.29Z"/>
    <path class="a" d="M154.83,132.69h0c-0.1.1,0.2,0.2,0.3,0.1v-0.1C155,132.59,154.93,132.49,154.83,132.69Z"/>
    <path class="a" d="M159.23,133.49a0.47,0.47,0,0,0-.5-0.3,1.22,1.22,0,0,0-.6,0c-0.1.1,0.1,0.2,0.2,0.3h0.1c0.1,0.1.3,0.2,0.4,0.3s0.5,0,.4-0.3h0Z"/>
    <path class="a" d="M151.43,128.69a0.82,0.82,0,0,0,.5-0.5h0a0.85,0.85,0,0,0-.2-0.6,0.75,0.75,0,0,0-.5-0.1,2.19,2.19,0,0,0-.5.3c-0.2,0-.4.1-0.3,0.3a0.2,0.2,0,0,0,.1.2c0,0.1.1,0.2-.1,0.3s0,0.4.3,0.5A1.72,1.72,0,0,1,151.43,128.69Z"/>
    <path class="a" d="M152.23,127.59c0.1,0,.2.1,0.3,0.1,0.3,0.1.6,0.2,0.4,0.3a2,2,0,0,0-.7.6c-0.1.2,0.5,0.3,0.5,0.3s-0.2.2,0,.3a4.71,4.71,0,0,0,.5-0.2c0.2,0,.7.1,0.9,0.1a0.77,0.77,0,0,0,.6-0.5,0.89,0.89,0,0,0-.6-0.6,0.43,0.43,0,0,1-.3-0.3c-0.2-.2-0.3-0.4-0.4-0.5s0.2-.4,0-0.6a1.14,1.14,0,0,0-.6-0.3,0.52,0.52,0,0,0-.6.2c-0.1.2-.3,0-0.5,0s-0.1.4,0,.5A0.74,0.74,0,0,0,152.23,127.59Z"/>
    <path class="a" d="M141.63,111.65a29.5,29.5,0,1,0,29.5,29.5A29.49,29.49,0,0,0,141.63,111.65Zm-11.5,41.5c0,0.1-.1,1-0.2,1.5a3.11,3.11,0,0,1-.1,1.1c-0.2.1-.4,0.3-0.2,0.5s-0.2.3-.2,0.4a1.48,1.48,0,0,1,.1.7c-0.1.2-.2,0.5-0.3,0.7a0.64,0.64,0,0,0-.2.6c0.1,0.3-.2.2-0.2,0.4s0.3,0.1.2,0.5a2.07,2.07,0,0,0-.2.6c0,0.2.1,0.5,0.1,0.6a1.1,1.1,0,0,1-.3.6,0.91,0.91,0,0,0-.3.5c0,0.1.2,0.3,0.2,0.4a3.33,3.33,0,0,0-.3.6c0,0.2.3,0.1,0.3,0.3s-0.3.3-.2,0.4,0.4,0.1.3,0.5h0a26.67,26.67,0,0,1-5.7-4.3,26.11,26.11,0,0,1-7.7-18.5,23.08,23.08,0,0,1,.3-3.7c0.1,0.1.3,0.2,0.2,0.4a0.45,0.45,0,0,0,.3.3c0.1,0,.4.5,0.6,0.3s-0.3-.6-0.5-0.7a2.85,2.85,0,0,0-.4-0.8l-0.2-.2a0.6,0.6,0,0,1,.1-0.4,3.74,3.74,0,0,0,.7.6,10,10,0,0,0,.9,1,1.18,1.18,0,0,1,.5.5,0.75,0.75,0,0,1,.1.5,0.83,0.83,0,0,0,.3.7,9.74,9.74,0,0,0,1.1.5,1,1,0,0,0,.7.5,0.92,0.92,0,0,1,.6.1c0.1,0.1.3,0.4,0.5,0.2a0.55,0.55,0,0,1,.5-0.3,0.62,0.62,0,0,1,.5.3,1.79,1.79,0,0,0,.7.5,1.49,1.49,0,0,0,.6.1,0.9,0.9,0,0,1,.5.1,1,1,0,0,1,.5.6,0.54,0.54,0,0,0,.4.5h0a4.56,4.56,0,0,0,1,.7c0.1,0.1.1,0.3,0.4,0.1a0.31,0.31,0,0,0,.2-0.4,0.35,0.35,0,0,1,.4.1,2.19,2.19,0,0,0,.3.5,0.72,0.72,0,0,1,.1.8,1.27,1.27,0,0,1-.2.6,2.18,2.18,0,0,0-.4.5,1.7,1.7,0,0,0-.6.6,1.88,1.88,0,0,1,.2.8,0.91,0.91,0,0,0-.3.7c0.1,0.3.7,0.4,0.7,0.7s0.5,0.9.5,1.2a3.13,3.13,0,0,1,.5,1,1.08,1.08,0,0,0,.8.7,6.13,6.13,0,0,1,.6.4,1.2,1.2,0,0,1,.5.5C130.23,152.65,130.13,153.05,130.13,153.15Zm34.3-17.6a2.46,2.46,0,0,0-1.1.4c-0.3.3-.4,0.4-0.5,0.3s0.8-.6.7-0.7a3.78,3.78,0,0,0-1.2-.1,2.93,2.93,0,0,1-1-.3,1.07,1.07,0,0,0-.9.6,0.63,0.63,0,0,1-.7.1,1.4,1.4,0,0,1-.7-0.4,3.1,3.1,0,0,0-.7-0.2,4.35,4.35,0,0,1-.7-0.4c-0.1,0-.4-0.3-0.2-0.4s0.5,0.1.2-.5a0.69,0.69,0,0,0-1-.4,10.87,10.87,0,0,1-1.8.1c-0.1,0-.9.3-1.2,0.4s-0.7.3-.8,0.3-0.7-.1-1,0-0.7.5-.7,0.5a1,1,0,0,0-.5.6,2.37,2.37,0,0,1-.3,1,4.13,4.13,0,0,0-1.1.7c-0.2.2-.5,1-0.8,1.4a0.72,0.72,0,0,0,.1.9,0.92,0.92,0,0,1-.1,1.1,2.47,2.47,0,0,1-.4.6,1,1,0,0,0,.2.4c0.1,0.3-.3.6,0.3,0.8a1.81,1.81,0,0,1,.9.8,3.74,3.74,0,0,0,.9.9,7.51,7.51,0,0,0,.8.7c0.3,0.2.3,0.1,0.4-.1a0.86,0.86,0,0,1,.8-0.2,4.05,4.05,0,0,0,1.1,0,5.13,5.13,0,0,0,1-.4,0.84,0.84,0,0,1,1-.1,1.53,1.53,0,0,1,.5.7,0.63,0.63,0,0,0,.8-0.1c0.3-.2.1-0.1,0.5,0.1s0.5,0.3.2,0.6a0.76,0.76,0,0,0-.2.5,1.27,1.27,0,0,1-.1.6c-0.2.4-.1,0.5,0.2,0.6a13.45,13.45,0,0,1,1.1,1.4c0.2,0.2-.1.8,0.1,1.1s0.4,0.6.2,0.7a1.9,1.9,0,0,0-.7,1.1,2.87,2.87,0,0,0,.2,1.2,9.29,9.29,0,0,1,.5,1,2.93,2.93,0,0,1,.3,1,1.34,1.34,0,0,0,.1.9,2.31,2.31,0,0,0,.5.7,0.94,0.94,0,0,1,.3.7,1.21,1.21,0,0,1,.1.5,0.91,0.91,0,0,0,.3.7c0.3,0.1.5,0.2,0.6,0a1.29,1.29,0,0,1,.7-0.1c-0.5.6-1.1,1.2-1.7,1.8a26.06,26.06,0,0,1-29.2,5.4,2.27,2.27,0,0,0,.4-0.1,2.35,2.35,0,0,0,.8-0.2,1.1,1.1,0,0,0-.7-0.1,1.85,1.85,0,0,1-.8-0.7,0.45,0.45,0,0,1,.1-0.6,5.54,5.54,0,0,0,.8-0.6,0.65,0.65,0,0,0,.2-0.5c-0.1-.1-0.5,0-0.6-0.1s-0.1-.2.2-0.4a35.53,35.53,0,0,0,.9-1.1c0.1-.2-0.1-0.1-0.3-0.1a0.46,0.46,0,0,1-.3-0.5,2.64,2.64,0,0,1,.7.1c0.3,0.1.2-.1,0.1-0.3s0.1-.5.2-0.4a2.36,2.36,0,0,0,1.2-.1,2.1,2.1,0,0,0,.5-0.7,0.3,0.3,0,0,0,0-.4c-0.1-.1-0.3-0.4-0.4-0.5a0.85,0.85,0,0,1,0-.7c0.1-.1,0,0.8.4,1a0.8,0.8,0,0,0,1-.2,1.56,1.56,0,0,0,.7-0.8,0.46,0.46,0,0,1,.3-0.5c0.1-.1.2,0.2,0.4-0.1s0.3-.3.5-0.7-0.3-.7.1-1,0.9-.5.9-0.5a4.21,4.21,0,0,1,.5-0.2,1.55,1.55,0,0,0,.8-0.2,2.51,2.51,0,0,1,.4-0.7,0.74,0.74,0,0,0,.3-0.7,2.92,2.92,0,0,1,.2-0.9,0.77,0.77,0,0,1,.1-0.9,3.52,3.52,0,0,0,.9-1,2.37,2.37,0,0,0,.3-1,0.94,0.94,0,0,0-.5-0.7,2.61,2.61,0,0,1-.8-0.3,1.2,1.2,0,0,0-.8-0.4,0.85,0.85,0,0,1-.7,0,4.35,4.35,0,0,1-.7-0.4,1.45,1.45,0,0,0-.7-0.2c-0.2,0-.1-0.1-0.4.2s0,0.5-.5.4,0.1-.1.3-0.4,0-.5-0.3-0.5-0.1.3-.5,0.3-0.5-.2-0.2-0.3a1.91,1.91,0,0,0,.8-0.4,0.42,0.42,0,0,0-.3-0.4,1.48,1.48,0,0,1-.5-0.7,1.14,1.14,0,0,0-1.1-.5,0.63,0.63,0,0,1-.8-0.2,2.25,2.25,0,0,0-.5-0.5,0.9,0.9,0,0,0-.5-0.1l-0.1-.1s-0.4.1-.2-0.2a0.35,0.35,0,0,0,.1-0.2,0.73,0.73,0,0,0,.1-0.6,1.51,1.51,0,0,1-.4.4c-0.1,0,0-.1-0.3-0.3a0.53,0.53,0,0,0-.7.1,1,1,0,0,1-.1.3,1.24,1.24,0,0,1-.2-0.3,0.48,0.48,0,0,0-.7,0c-0.2.2-.3-0.4-0.5-0.4a0.87,0.87,0,0,0-.6.4,0.48,0.48,0,0,0-.1.4c0,0.1,0,.3-0.1.2s-0.1-.1-0.1-0.2v-0.4c0-.2.3-0.5,0.1-0.5a1.49,1.49,0,0,0-.7.3,1.18,1.18,0,0,0-.6.5,0.2,0.2,0,0,0-.1.2l-0.3.3a0.27,0.27,0,0,1-.4-0.1l-0.2-.2c-0.2-.1-0.3-0.2-0.4-0.1l-0.1.1a2.57,2.57,0,0,1-.5.2,0.48,0.48,0,0,1-.5-0.2h0a0.47,0.47,0,0,1-.2-0.5c0-.4.1-0.8,0.1-1a0.86,0.86,0,0,0-.6-0.7c-0.2,0-.4.2-0.6,0.2a2.27,2.27,0,0,0-.4-0.1c-0.3,0-.1-0.1,0-0.3a1.08,1.08,0,0,1,.2-0.8c0.3-.2.2-0.8,0-0.8s-0.6.1-.8,0.1a0.37,0.37,0,0,0-.4.5,0.26,0.26,0,0,1-.2.4,0.35,0.35,0,0,0-.5.1c-0.3.2-.4,0.1-0.7-0.1a1.5,1.5,0,0,1-.7-0.9,1.67,1.67,0,0,1,0-1,0.59,0.59,0,0,0-.1-0.7c-0.2-.1.2-0.3,0.4-0.4a3.11,3.11,0,0,0,.6-0.4,1.1,1.1,0,0,1,.7-0.1,1,1,0,0,1,.7.2,0.24,0.24,0,0,0,.4-0.2c0-.1.1-0.3,0.5-0.2a2.64,2.64,0,0,1,.9,0c0.1,0.1.3,0.4,0.4,0.3s0.2-.3.3,0a1.6,1.6,0,0,0,.5,1c0.3,0.1.1,0.4,0.4,0.5s0.4-.5.3-0.7-0.3-.8-0.4-1a0.47,0.47,0,0,1,.1-0.6,5.38,5.38,0,0,0,1.2-.9c0.2-.2.7-0.3,0.6-0.5a0.65,0.65,0,0,1-.2-0.5c0-.2.2-0.1,0.3,0s0.4-.2.3-0.3-0.1-.3.1-0.3,0.3-.1.2-0.3,0.2-.3.4-0.2a1.06,1.06,0,0,0,.8-0.1,4.71,4.71,0,0,0-.2-0.5,0.82,0.82,0,0,1,.5-0.5,0.62,0.62,0,0,0,.5-0.1c0-.1.3-0.3,0.3-0.1s0,0.5.2,0.5a3.33,3.33,0,0,0,.6-0.3,1.85,1.85,0,0,0,.7-0.2c0.1,0,.8-0.1.7-0.3a2.19,2.19,0,0,0-.3-0.5c-0.1-.1-0.2,0-0.3.2a0.3,0.3,0,0,1-.4,0c-0.1-.1,0-0.5-0.2-0.3a1.44,1.44,0,0,1-.3.2,1.44,1.44,0,0,1-.2-0.3,0.24,0.24,0,0,0,.1-0.4,0.61,0.61,0,0,0-.8-0.1l-0.6.2a4.2,4.2,0,0,0-.5.2,5,5,0,0,0,.7-0.5,6.12,6.12,0,0,1,.6-0.4,0.56,0.56,0,0,1,.6.1s0.2-.2.2-0.1-0.1.5,0.1,0.5,0.7-.2.5-0.3,0.3,0,.5-0.1a2.57,2.57,0,0,0,.5-0.2,0.62,0.62,0,0,1,.4-0.3c0.2,0,.3.3,0,0.4s-0.3.6-.5,0.7-0.1.3,0.2,0.2H134a0.48,0.48,0,0,1,.4.1c0.1,0.1.2-.1,0.2-0.1a0.51,0.51,0,0,1,.5.1c0.1,0.1.2-.1,0.1-0.2a2.18,2.18,0,0,1-.3-0.5,0.34,0.34,0,0,0-.4-0.2,0.48,0.48,0,0,1-.4-0.1c-0.1-.1-0.3.1-0.1-0.1a1.38,1.38,0,0,1,.3-0.4c0.1-.2.5-0.5,0.1-0.6s-0.5-.1-0.5-0.3a1.33,1.33,0,0,0-.6-0.5,0.75,0.75,0,0,1-.5-0.1,1.33,1.33,0,0,0-.5-0.6,6,6,0,0,0-.8-0.8c-0.1-.1-0.2,0-0.5.3a0.62,0.62,0,0,1-.7.3,1,1,0,0,1-.4-0.3c-0.2-.2.2-0.3,0.1-0.4a1.55,1.55,0,0,0-.8-0.2,6.31,6.31,0,0,1-.9-0.4c-0.4,0-.9.1-1.1,0.1a0.77,0.77,0,0,0-.2.5c-0.1.3,0.2,0.4-.1,0.5s-0.4.1-.1,0.2a1.62,1.62,0,0,1,.6.6,0.48,0.48,0,0,1-.2.4c-0.2.1-.4,0.3-0.5,0.1s-0.4-.1-0.3,0a4,4,0,0,1,.3.4c0,0.2.3,0.6,0.1,0.7a4.33,4.33,0,0,0-.5.1c-0.1,0-.3-0.2-0.2-0.3a0.83,0.83,0,0,0,0-.5s-0.3.5-.3,0.2a4.33,4.33,0,0,0-.1-0.5,0.25,0.25,0,0,0-.4-0.2,2.56,2.56,0,0,1-1.1-.2,3.55,3.55,0,0,1-1.1-.3,0.58,0.58,0,0,0-.7,0c-0.2,0-.1-0.4-0.4-0.5s-0.4.1-.5-0.3,0.1-.5.7-0.9,0.5-.6,1-0.6,0.7,0.1.7-.1,0.1-.7.1-0.4,0.6,0.3.3,0.5-0.1.2,0.1,0.2a2,2,0,0,0,.6-0.2,0.63,0.63,0,0,1,.6,0c0.1,0.2.1,0.3,0.3,0.3s0.6-.2.3-0.4a2.93,2.93,0,0,1-.8-0.4c-0.2-.2-0.2-0.1-0.4-0.1s-0.3-.1-0.3-0.1-0.2.1-.3-0.1,0-.1.3-0.1a2.18,2.18,0,0,1,.6.1,2.27,2.27,0,0,1,.4-0.1,0.55,0.55,0,0,0,.5-0.3,0.47,0.47,0,0,0-.5-0.3c-0.1-.1.2-0.2,0.3-0.3a0.83,0.83,0,0,1,.5,0,0.37,0.37,0,0,0,.3-0.1c0-.1-0.1-0.3.1-0.2s0,0.3.3,0.3a0.44,0.44,0,0,1,.5.1,0.39,0.39,0,0,1-.2.5c-0.1.1-.4,0.2-0.1,0.2h0.5a1.87,1.87,0,0,0,.3-0.4c0.1-.2.2-0.1,0.3,0s0.5,0.1.1,0.3a1,1,0,0,0-.6.4c-0.1.1-.1,0.2-0.5,0.1s-0.6-.1-0.7.1,0,0.6.1,0.5a0.75,0.75,0,0,1,.5-0.1c0.2-.1.9,0.1,1,0a4.72,4.72,0,0,0,.5.2c0.1-.1.3,0.1,0.4,0.2s0.1-.3.4,0,0.1,0.2.3,0.2h0.5a0.21,0.21,0,0,1,.3-0.2c0.3,0.1.5,0.4,0.5,0.1a0.73,0.73,0,0,0-.2-0.6,5.74,5.74,0,0,0-.7-0.4,0.19,0.19,0,0,1,0-.3,0.71,0.71,0,0,1,.7.2,0.73,0.73,0,0,0,.6.2,2.19,2.19,0,0,0,.5-0.3l0.3-.3a2.24,2.24,0,0,1-1-.3,1.69,1.69,0,0,0-.6-0.3c-0.1,0-.4.2-0.5-0.1a3.1,3.1,0,0,0-.2-0.7,9.93,9.93,0,0,1-1.5-.3c-0.2-.1-0.9-0.3-1.1-0.4a3.18,3.18,0,0,0-.9-0.3c-0.2,0-1.2.1-1.4,0.1s-0.7.1-.9,0.1,0.3,0.4-.2.5-0.4.1-.3-0.3c0-.1,0-0.3-0.1-0.3a1.38,1.38,0,0,1,.4-0.3c0.4,0,1,.1,1.3.1a0.47,0.47,0,0,0,.5-0.2,1.88,1.88,0,0,0-.8-0.2h-0.5a26,26,0,0,1,34.5,2,1.58,1.58,0,0,0-.8.3,4.3,4.3,0,0,1-.7.7,9.06,9.06,0,0,1-1.6,1.1,2.47,2.47,0,0,0-1.2.7c0,0.1.2,0.5,0.2,0.6a0.56,0.56,0,0,0,.4.6,0.85,0.85,0,0,0,.9-0.1c0-.2.5-0.5,0.5-0.3a3.39,3.39,0,0,0,.3.8c-0.1.2,0,.3,0.2,0.3a13,13,0,0,0,1.3-.3,0.45,0.45,0,0,0,.3-0.4,1,1,0,0,1,.5-0.6c0.1-.1.4-0.4,0-0.5s-0.7-.1-0.3-0.5,0.7,0,1.2-.5a0.59,0.59,0,0,0,.2-0.6,1.76,1.76,0,0,1,.4.5c-0.1.1-.3,0.1-0.4,0.2a0.45,0.45,0,0,0-.2.7c0.1,0.2.2,0.6,0.5,0.5a1.49,1.49,0,0,1,.9-0.2h0.1c0.1,0.2.2,0.3,0.3,0.5H162a2,2,0,0,0-1,.1c0,0.1.7,0.3,0.4,0.4a0.88,0.88,0,0,1-.7-0.1,0.63,0.63,0,0,0-.5.6c-0.1.2,0.1,0.6-.3,0.5a3.44,3.44,0,0,0-.9-0.1,4.87,4.87,0,0,1-.7.3,0.9,0.9,0,0,1-.5-0.1h-0.6a0.69,0.69,0,0,1-.3-0.4,0.78,0.78,0,0,0,0-.5,0.62,0.62,0,0,0-.7.2,0.7,0.7,0,0,0-.1.6c0.1,0.1.5,0.4,0.1,0.3a0.94,0.94,0,0,0-.9.1,7.36,7.36,0,0,1-.6.5,1.85,1.85,0,0,0-.7.2c0,0.2,0,.4-0.3.4a4.4,4.4,0,0,0-1,.2,1.45,1.45,0,0,1-.7.2c-0.4,0-.5.2-0.1,0.3a1.87,1.87,0,0,1,1,.5,1.2,1.2,0,0,1-.2.8,1.55,1.55,0,0,1-1,.1,5.65,5.65,0,0,0-1.3,0,0.52,0.52,0,0,0-.2.4,0.75,0.75,0,0,0,.1.5,0.4,0.4,0,0,1-.1.5,0.45,0.45,0,0,0,0,.5,1.51,1.51,0,0,0,.4.4,0.66,0.66,0,0,1,.6.1,0.76,0.76,0,0,0,.4.4c0.1-.1.2-0.5,0.3-0.4a0.93,0.93,0,0,0,.7-0.1,1.53,1.53,0,0,0,.7-0.5c0.3-.1.1-0.1,0-0.3a0.9,0.9,0,0,1,.5-0.6c0.2-.2.6,0,0.7-0.3,0-.1.1-0.2,0.1-0.3a0.27,0.27,0,0,1,.3-0.3c0.2,0,.5.2,0.7,0.2a1.61,1.61,0,0,0,.7-0.4,0.52,0.52,0,0,1,.6.2,0.53,0.53,0,0,0,.2.3c0.2,0.2.4,0.3,0.5,0.4s0.9,0.3,1,.4a0.85,0.85,0,0,1,.3.6c0.1,0.2.3,0.2,0.3,0s-0.1-.6.1-0.5a1,1,0,0,0,.4-0.1,6.82,6.82,0,0,0-.7-0.5,3.21,3.21,0,0,1-.5-0.3l-0.3-.3a1.7,1.7,0,0,1-.6-0.6c0-.3.4-0.1,0.7,0.1s0.8,0.5,1,.7h0a3.17,3.17,0,0,1,.6.5,4.35,4.35,0,0,0,.4.7,7.26,7.26,0,0,1,.5.9,0.48,0.48,0,0,0,.5-0.1,0.78,0.78,0,0,0,.4-0.4,0.82,0.82,0,0,0-.5-0.5c-0.1-.1.3-0.2,0.4-0.3s0.4-.3.5-0.1a3.75,3.75,0,0,1,.1,1c0.1,0.1.6,0.3,0.7,0.4a0.88,0.88,0,0,0,.7.1,2,2,0,0,1,.7.1c0.1,0,.5-0.1.7-0.1s0.5-.2.4,0.1a1.75,1.75,0,0,1-.4,1.2c-0.3.3-.2,0.4-0.5,0.4h-0.4C164.73,135.55,164.63,135.45,164.43,135.55Z"/>
  </g>
  <path class="b" d="M141.63,256.42v14.74c-33.14,0-60-58.21-60-130H92.92C92.92,204.81,114.73,256.42,141.63,256.42Z"/>
  <path class="b" d="M201.63,141.15H190.34c0-63.66-21.81-115.26-48.71-115.26V11.16C174.77,11.16,201.63,69.35,201.63,141.15Z"/>
  <path class="c" d="M111.64,193.1l5.65-9.78C62.15,151.5,28.37,106.81,41.82,83.51L29.06,76.15C12.49,104.85,49.46,157.2,111.64,193.1Z"/>
  <path class="c" d="M171.66,89.24c62.17,35.89,99.15,88.26,82.58,117l-12.77-7.37c13.45-23.3-20.34-68-75.46-99.81Z"/>
  <path class="d" d="M111.62,89.18L117.27,99C172.4,67.13,228,60.22,241.44,83.51l12.76-7.36C237.62,47.45,173.8,53.28,111.62,89.18Z"/>
  <path class="d" d="M41.83,198.74l-12.77,7.37c-16.57-28.7,20.41-81.07,82.58-117l5.64,9.78C62.17,130.75,28.38,175.44,41.83,198.74Z"/>
  <path class="d" d="M171.65,193.07c-62.17,35.89-126,41.74-142.58,13l12.77-7.37C55.28,222,110.88,215.12,166,183.29Z"/>
  <path class="d" d="M171.66,193.06L166,183.29c55.13-31.83,88.91-76.52,75.46-99.81l12.76-7.36C270.8,104.81,233.84,157.16,171.66,193.06Z"/>
  <path class="c" d="M171.65,89.23L166,99C110.87,67.18,55.28,60.27,41.83,83.57L29.08,76.2C45.65,47.5,109.47,53.33,171.65,89.23Z"/>
  <path class="c" d="M241.48,198.83l12.77,7.37c-16.57,28.7-80.41,22.86-142.58-13l5.64-9.78C172.43,215.21,228,222.13,241.48,198.83Z"/>
  <path class="b" d="M201.63,141.16c0,71.79-26.86,130-60,130V256.42c26.9,0,48.71-51.61,48.71-115.26h11.29Z"/>
  <path class="b" d="M81.63,141.15H92.92c0-63.66,21.81-115.26,48.71-115.26V11.16C108.49,11.16,81.63,69.35,81.63,141.15Z"/>
  <circle class="e" cx="149.68" cy="18.84" r="15"/>
  <circle class="f" cx="242.95" cy="209.06" r="15" transform="matrix(0.5, -0.87, 0.87, 0.5, -59.57, 314.93)"/>
  <circle class="a" cx="31.8" cy="195.89" r="15" transform="translate(-93.69 42.15) rotate(-30)"/>
</svg>
